<svg viewBox="335 275.3835 380 104.2329" width="5000" height="1371.4855263157895" xmlns="http://www.w3.org/2000/svg" xmlns:xlink="http://www.w3.org/1999/xlink" preserveAspectRatio="none"><defs></defs><style>.aB7crM0kCifillColor {fill:#FF6600;fill-opacity:1;}.aD6z1nYkhcolor {fill:#F7F7F7;fill-opacity:1;}.atBXipXk0bfillColor {fill:#2B475C;fill-opacity:0;}.awcQ0Ipv4ccolors-0 {fill:#F7F7F7;fill-opacity:1;}.companyName {fill:#F7F7F7;fill-opacity:1;}.text-str {stroke:#F7F7F7;stroke-opacity:1;}</style><g opacity="1" transform="rotate(0 406.7448 275.3835)">
<svg width="308.2552" height="74.4521" x="406.7448" y="275.3835" version="1.1" preserveAspectRatio="none" viewBox="0 0 308.2552 74.4521">
  <rect x="0" y="0" width="308.2552" height="74.4521" class="aB7crM0kCifillColor text-str" style="stroke-width:0;" rx="0px" ry="0px" />
</svg>
</g><g opacity="1" transform="rotate(0 415.8229 366.0797)">
<svg width="218.3542" height="13.5367" x="415.8229" y="366.0797" version="1.1" preserveAspectRatio="none" viewBox="-0.16 -30.28 617.4799999999999 38.28">
  <g transform="matrix(1 0 0 1 0 0)" class="companyName"><path d="M26.04-28L14.92-9.68L14.92 0L10.96 0L10.96-9.76L-0.16-28L4.12-28L13.08-13.24L22.08-28L26.04-28Z M38.20 0.24Q35.04 0.24 32.52-1.16Q30-2.56 28.58-5.02Q27.16-7.48 27.16-10.60L27.16-10.60Q27.16-13.72 28.58-16.18Q30-18.64 32.52-20.02Q35.04-21.40 38.20-21.40L38.20-21.40Q41.36-21.40 43.86-20.02Q46.36-18.64 47.78-16.18Q49.20-13.72 49.20-10.60L49.20-10.60Q49.20-7.48 47.78-5.02Q46.36-2.56 43.86-1.16Q41.36 0.24 38.20 0.24L38.20 0.24ZM38.20-3.12Q40.24-3.12 41.86-4.06Q43.48-5 44.40-6.70Q45.32-8.40 45.32-10.60L45.32-10.60Q45.32-12.80 44.40-14.50Q43.48-16.20 41.86-17.12Q40.24-18.04 38.20-18.04L38.20-18.04Q36.16-18.04 34.54-17.12Q32.92-16.20 31.98-14.50Q31.04-12.80 31.04-10.60L31.04-10.60Q31.04-8.40 31.98-6.70Q32.92-5 34.54-4.06Q36.16-3.12 38.20-3.12L38.20-3.12Z M72.44-21.20L76.28-21.20L76.28 0L72.64 0L72.64-3.20Q71.48-1.56 69.58-0.66Q67.68 0.24 65.44 0.24L65.44 0.24Q61.20 0.24 58.76-2.10Q56.32-4.44 56.32-9L56.32-9L56.32-21.20L60.16-21.20L60.16-9.44Q60.16-6.36 61.64-4.78Q63.12-3.20 65.88-3.20L65.88-3.20Q68.92-3.20 70.68-5.04Q72.44-6.88 72.44-10.24L72.44-10.24L72.44-21.20Z M89.28-17.64Q90.28-19.48 92.24-20.44Q94.20-21.40 97.00-21.40L97.00-21.40L97.00-17.68Q96.68-17.72 96.12-17.72L96.12-17.72Q93.00-17.72 91.22-15.86Q89.44-14 89.44-10.56L89.44-10.56L89.44 0L85.60 0L85.60-21.20L89.28-21.20L89.28-17.64Z M117.32 0L117.32-28L129.12-28Q133.56-28 137.00-26.24Q140.44-24.48 142.34-21.30Q144.24-18.12 144.24-14L144.24-14Q144.24-9.88 142.34-6.70Q140.44-3.52 137.00-1.76Q133.56 0 129.12 0L129.12 0L117.32 0ZM121.32-3.48L128.88-3.48Q132.28-3.48 134.86-4.80Q137.44-6.12 138.84-8.50Q140.24-10.88 140.24-14L140.24-14Q140.24-17.12 138.84-19.50Q137.44-21.88 134.86-23.20Q132.28-24.52 128.88-24.52L128.88-24.52L121.32-24.52L121.32-3.48Z M170.96-10.48Q170.96-10.04 170.88-9.32L170.88-9.32L153.68-9.32Q154.04-6.52 156.14-4.82Q158.24-3.12 161.36-3.12L161.36-3.12Q165.16-3.12 167.48-5.68L167.48-5.68L169.60-3.20Q168.16-1.52 166.02-0.64Q163.88 0.24 161.24 0.24L161.24 0.24Q157.88 0.24 155.28-1.14Q152.68-2.52 151.26-5Q149.84-7.48 149.84-10.60L149.84-10.60Q149.84-13.68 151.22-16.16Q152.60-18.64 155.02-20.02Q157.44-21.40 160.48-21.40L160.48-21.40Q163.52-21.40 165.90-20.02Q168.28-18.64 169.62-16.16Q170.96-13.68 170.96-10.48L170.96-10.48ZM160.48-18.16Q157.72-18.16 155.86-16.48Q154.00-14.80 153.68-12.08L153.68-12.08L167.28-12.08Q166.96-14.76 165.10-16.46Q163.24-18.16 160.48-18.16L160.48-18.16Z M197.44-10.48Q197.44-10.04 197.36-9.32L197.36-9.32L180.16-9.32Q180.52-6.52 182.62-4.82Q184.72-3.12 187.84-3.12L187.84-3.12Q191.64-3.12 193.96-5.68L193.96-5.68L196.08-3.20Q194.64-1.52 192.50-0.64Q190.36 0.24 187.72 0.24L187.72 0.24Q184.36 0.24 181.76-1.14Q179.16-2.52 177.74-5Q176.32-7.48 176.32-10.60L176.32-10.60Q176.32-13.68 177.70-16.16Q179.08-18.64 181.50-20.02Q183.92-21.40 186.96-21.40L186.96-21.40Q190-21.40 192.38-20.02Q194.76-18.64 196.10-16.16Q197.44-13.68 197.44-10.48L197.44-10.48ZM186.96-18.16Q184.20-18.16 182.34-16.48Q180.48-14.80 180.16-12.08L180.16-12.08L193.76-12.08Q193.44-14.76 191.58-16.46Q189.72-18.16 186.96-18.16L186.96-18.16Z M216-21.40Q219.08-21.40 221.52-20.04Q223.96-18.68 225.34-16.24Q226.72-13.80 226.72-10.60L226.72-10.60Q226.72-7.40 225.34-4.94Q223.96-2.48 221.52-1.12Q219.08 0.24 216 0.24L216 0.24Q213.72 0.24 211.82-0.64Q209.92-1.52 208.60-3.20L208.60-3.20L208.60 7.76L204.76 7.76L204.76-21.20L208.44-21.20L208.44-17.84Q209.72-19.60 211.68-20.50Q213.64-21.40 216-21.40L216-21.40ZM215.68-3.12Q217.72-3.12 219.34-4.06Q220.96-5 221.90-6.70Q222.84-8.40 222.84-10.60L222.84-10.60Q222.84-12.80 221.90-14.50Q220.96-16.20 219.34-17.12Q217.72-18.04 215.68-18.04L215.68-18.04Q213.68-18.04 212.06-17.10Q210.44-16.16 209.50-14.48Q208.56-12.80 208.56-10.60L208.56-10.60Q208.56-8.40 209.48-6.70Q210.40-5 212.04-4.06Q213.68-3.12 215.68-3.12L215.68-3.12Z M247.36 0L247.36-28L251.36-28L251.36-3.48L266.52-3.48L266.52 0L247.36 0Z M291.44-10.48Q291.44-10.04 291.36-9.32L291.36-9.32L274.16-9.32Q274.52-6.52 276.62-4.82Q278.72-3.12 281.84-3.12L281.84-3.12Q285.64-3.12 287.96-5.68L287.96-5.68L290.08-3.20Q288.64-1.52 286.50-0.64Q284.36 0.24 281.72 0.24L281.72 0.24Q278.36 0.24 275.76-1.14Q273.16-2.52 271.74-5Q270.32-7.48 270.32-10.60L270.32-10.60Q270.32-13.68 271.70-16.16Q273.08-18.64 275.50-20.02Q277.92-21.40 280.96-21.40L280.96-21.40Q284.00-21.40 286.38-20.02Q288.76-18.64 290.10-16.16Q291.44-13.68 291.44-10.48L291.44-10.48ZM280.96-18.16Q278.20-18.16 276.34-16.48Q274.48-14.80 274.16-12.08L274.16-12.08L287.76-12.08Q287.44-14.76 285.58-16.46Q283.72-18.16 280.96-18.16L280.96-18.16Z M305.88-21.40Q310.28-21.40 312.62-19.24Q314.96-17.08 314.96-12.80L314.96-12.80L314.96 0L311.32 0L311.32-2.80Q310.36-1.32 308.58-0.54Q306.80 0.24 304.36 0.24L304.36 0.24Q300.80 0.24 298.66-1.48Q296.52-3.20 296.52-6L296.52-6Q296.52-8.80 298.56-10.50Q300.60-12.20 305.04-12.20L305.04-12.20L311.12-12.20L311.12-12.96Q311.12-15.44 309.68-16.76Q308.24-18.08 305.44-18.08L305.44-18.08Q303.56-18.08 301.76-17.46Q299.96-16.84 298.72-15.80L298.72-15.80L297.12-18.68Q298.76-20 301.04-20.70Q303.32-21.40 305.88-21.40L305.88-21.40ZM305.00-2.72Q307.20-2.72 308.80-3.70Q310.40-4.68 311.12-6.48L311.12-6.48L311.12-9.44L305.20-9.44Q300.32-9.44 300.32-6.16L300.32-6.16Q300.32-4.56 301.56-3.64Q302.80-2.72 305.00-2.72L305.00-2.72Z M327.76-17.64Q328.76-19.48 330.72-20.44Q332.68-21.40 335.48-21.40L335.48-21.40L335.48-17.68Q335.16-17.72 334.60-17.72L334.60-17.72Q331.48-17.72 329.70-15.86Q327.92-14 327.92-10.56L327.92-10.56L327.92 0L324.08 0L324.08-21.20L327.76-21.20L327.76-17.64Z M353.52-21.40Q357.56-21.40 359.94-19.06Q362.32-16.72 362.32-12.20L362.32-12.20L362.32 0L358.48 0L358.48-11.76Q358.48-14.84 357.00-16.40Q355.52-17.96 352.76-17.96L352.76-17.96Q349.64-17.96 347.84-16.14Q346.04-14.32 346.04-10.92L346.04-10.92L346.04 0L342.20 0L342.20-21.20L345.88-21.20L345.88-18Q347.04-19.64 349.02-20.52Q351.00-21.40 353.52-21.40L353.52-21.40Z M371.44 0L371.44-21.20L375.28-21.20L375.28 0L371.44 0ZM373.36-25.28Q372.24-25.28 371.50-26Q370.76-26.72 370.76-27.76L370.76-27.76Q370.76-28.80 371.50-29.54Q372.24-30.28 373.36-30.28L373.36-30.28Q374.48-30.28 375.22-29.58Q375.96-28.88 375.96-27.84L375.96-27.84Q375.96-26.76 375.22-26.02Q374.48-25.28 373.36-25.28L373.36-25.28Z M395.92-21.40Q399.96-21.40 402.34-19.06Q404.72-16.72 404.72-12.20L404.72-12.20L404.72 0L400.88 0L400.88-11.76Q400.88-14.84 399.40-16.40Q397.92-17.96 395.16-17.96L395.16-17.96Q392.04-17.96 390.24-16.14Q388.44-14.32 388.44-10.92L388.44-10.92L388.44 0L384.60 0L384.60-21.20L388.28-21.20L388.28-18Q389.44-19.64 391.42-20.52Q393.40-21.40 395.92-21.40L395.92-21.40Z M430.60-21.20L434.24-21.20L434.24-2.88Q434.24 2.68 431.48 5.34Q428.72 8 423.24 8L423.24 8Q420.24 8 417.52 7.18Q414.80 6.36 413.12 4.84L413.12 4.84L414.96 1.88Q416.44 3.16 418.62 3.90Q420.80 4.64 423.12 4.64L423.12 4.64Q426.84 4.64 428.62 2.88Q430.40 1.12 430.40-2.48L430.40-2.48L430.40-4.16Q429.04-2.52 427.06-1.70Q425.08-0.88 422.76-0.88L422.76-0.88Q419.72-0.88 417.26-2.18Q414.80-3.48 413.40-5.82Q412.00-8.16 412.00-11.16L412.00-11.16Q412.00-14.16 413.40-16.50Q414.80-18.84 417.26-20.12Q419.72-21.40 422.76-21.40L422.76-21.40Q425.16-21.40 427.22-20.52Q429.28-19.64 430.60-17.92L430.60-17.92L430.60-21.20ZM423.20-4.24Q425.28-4.24 426.94-5.12Q428.60-6 429.54-7.58Q430.48-9.16 430.48-11.16L430.48-11.16Q430.48-14.24 428.44-16.14Q426.40-18.04 423.20-18.04L423.20-18.04Q419.96-18.04 417.92-16.14Q415.88-14.24 415.88-11.16L415.88-11.16Q415.88-9.16 416.82-7.58Q417.76-6 419.42-5.12Q421.08-4.24 423.20-4.24L423.20-4.24Z M467.80-28Q473.24-28 476.36-25.40Q479.48-22.80 479.48-18.24L479.48-18.24Q479.48-13.68 476.36-11.08Q473.24-8.48 467.80-8.48L467.80-8.48L460.88-8.48L460.88 0L456.88 0L456.88-28L467.80-28ZM467.68-11.96Q471.48-11.96 473.48-13.58Q475.48-15.20 475.48-18.24L475.48-18.24Q475.48-21.28 473.48-22.90Q471.48-24.52 467.68-24.52L467.68-24.52L460.88-24.52L460.88-11.96L467.68-11.96Z M494.32-21.40Q498.72-21.40 501.06-19.24Q503.40-17.08 503.40-12.80L503.40-12.80L503.40 0L499.76 0L499.76-2.80Q498.80-1.32 497.02-0.54Q495.24 0.24 492.80 0.24L492.80 0.24Q489.24 0.24 487.10-1.48Q484.96-3.20 484.96-6L484.96-6Q484.96-8.80 487.00-10.50Q489.04-12.20 493.48-12.20L493.48-12.20L499.56-12.20L499.56-12.96Q499.56-15.44 498.12-16.76Q496.68-18.08 493.88-18.08L493.88-18.08Q492.00-18.08 490.20-17.46Q488.40-16.84 487.16-15.80L487.16-15.80L485.56-18.68Q487.20-20 489.48-20.70Q491.76-21.40 494.32-21.40L494.32-21.40ZM493.44-2.72Q495.64-2.72 497.24-3.70Q498.84-4.68 499.56-6.48L499.56-6.48L499.56-9.44L493.64-9.44Q488.76-9.44 488.76-6.16L488.76-6.16Q488.76-4.56 490.00-3.64Q491.24-2.72 493.44-2.72L493.44-2.72Z M516.20-17.64Q517.20-19.48 519.16-20.44Q521.12-21.40 523.92-21.40L523.92-21.40L523.92-17.68Q523.60-17.72 523.04-17.72L523.04-17.72Q519.92-17.72 518.14-15.86Q516.36-14 516.36-10.56L516.36-10.56L516.36 0L512.52 0L512.52-21.20L516.20-21.20L516.20-17.64Z M542.24-4L543.44-1.24Q542.60-0.52 541.36-0.14Q540.12 0.24 538.80 0.24L538.80 0.24Q535.60 0.24 533.84-1.48Q532.08-3.20 532.08-6.40L532.08-6.40L532.08-18.04L528.48-18.04L528.48-21.20L532.08-21.20L532.08-25.84L535.92-25.84L535.92-21.20L542.00-21.20L542.00-18.04L535.92-18.04L535.92-6.56Q535.92-4.84 536.78-3.92Q537.64-3 539.24-3L539.24-3Q541.00-3 542.24-4L542.24-4Z M561.40-21.40Q565.44-21.40 567.82-19.06Q570.20-16.72 570.20-12.20L570.20-12.20L570.20 0L566.36 0L566.36-11.76Q566.36-14.84 564.88-16.40Q563.40-17.96 560.64-17.96L560.64-17.96Q557.52-17.96 555.72-16.14Q553.92-14.32 553.92-10.92L553.92-10.92L553.92 0L550.08 0L550.08-21.20L553.76-21.20L553.76-18Q554.92-19.64 556.90-20.52Q558.88-21.40 561.40-21.40L561.40-21.40Z M598.60-10.48Q598.60-10.04 598.52-9.32L598.52-9.32L581.32-9.32Q581.68-6.52 583.78-4.82Q585.88-3.12 589.00-3.12L589.00-3.12Q592.80-3.12 595.12-5.68L595.12-5.68L597.24-3.20Q595.80-1.52 593.66-0.64Q591.52 0.24 588.88 0.24L588.88 0.24Q585.52 0.24 582.92-1.14Q580.32-2.52 578.90-5Q577.48-7.48 577.48-10.60L577.48-10.60Q577.48-13.68 578.86-16.16Q580.24-18.64 582.66-20.02Q585.08-21.40 588.12-21.40L588.12-21.40Q591.16-21.40 593.54-20.02Q595.92-18.64 597.26-16.16Q598.60-13.68 598.60-10.48L598.60-10.48ZM588.12-18.16Q585.36-18.16 583.50-16.48Q581.64-14.80 581.32-12.08L581.32-12.08L594.92-12.08Q594.60-14.76 592.74-16.46Q590.88-18.16 588.12-18.16L588.12-18.16Z M609.60-17.64Q610.60-19.48 612.56-20.44Q614.52-21.40 617.32-21.40L617.32-21.40L617.32-17.68Q617.00-17.72 616.44-17.72L616.44-17.72Q613.32-17.72 611.54-15.86Q609.76-14 609.76-10.56L609.76-10.56L609.76 0L605.92 0L605.92-21.20L609.60-21.20L609.60-17.64Z"/></g>
</svg>
</g><g opacity="1" transform="rotate(0 427.0499 295.6886)">
<svg width="267.645" height="33.8419" x="427.0499" y="295.6886" version="1.1" preserveAspectRatio="none" viewBox="3.32 -31.48 252.76 31.96">
  <g transform="matrix(1 0 0 1 0 0)" class="aD6z1nYkhcolor"><path d="M3.32 0L3.32-28L16.04-28Q20.60-28 24.10-26.26Q27.60-24.52 29.54-21.36Q31.48-18.20 31.48-14L31.48-14Q31.48-9.80 29.54-6.64Q27.60-3.48 24.10-1.74Q20.60 0 16.04 0L16.04 0L3.32 0ZM9.80-5.32L15.72-5.32Q19.92-5.32 22.42-7.66Q24.92-10 24.92-14L24.92-14Q24.92-18 22.42-20.34Q19.92-22.68 15.72-22.68L15.72-22.68L9.80-22.68L9.80-5.32Z M44.60-21.84Q49.60-21.84 52.28-19.46Q54.96-17.08 54.96-12.28L54.96-12.28L54.96 0L49.12 0L49.12-2.68Q47.36 0.32 42.56 0.32L42.56 0.32Q40.08 0.32 38.26-0.52Q36.44-1.36 35.48-2.84Q34.52-4.32 34.52-6.20L34.52-6.20Q34.52-9.20 36.78-10.92Q39.04-12.64 43.76-12.64L43.76-12.64L48.72-12.64Q48.72-14.68 47.48-15.78Q46.24-16.88 43.76-16.88L43.76-16.88Q42.04-16.88 40.38-16.34Q38.72-15.80 37.56-14.88L37.56-14.88L35.32-19.24Q37.08-20.48 39.54-21.16Q42-21.84 44.60-21.84L44.60-21.84ZM44.12-3.88Q45.72-3.88 46.96-4.62Q48.20-5.36 48.72-6.80L48.72-6.80L48.72-9L44.44-9Q40.60-9 40.60-6.48L40.60-6.48Q40.60-5.28 41.54-4.58Q42.48-3.88 44.12-3.88L44.12-3.88Z M72.80-5.44L74.48-1.04Q73.56-0.36 72.22-0.02Q70.88 0.32 69.40 0.32L69.40 0.32Q65.56 0.32 63.46-1.64Q61.36-3.60 61.36-7.40L61.36-7.40L61.36-16.24L58.04-16.24L58.04-21.04L61.36-21.04L61.36-26.28L67.60-26.28L67.60-21.04L72.96-21.04L72.96-16.24L67.60-16.24L67.60-7.48Q67.60-6.12 68.30-5.38Q69-4.64 70.28-4.64L70.28-4.64Q71.76-4.64 72.80-5.44L72.80-5.44Z M86.68-21.84Q91.68-21.84 94.36-19.46Q97.04-17.08 97.04-12.28L97.04-12.28L97.04 0L91.20 0L91.20-2.68Q89.44 0.32 84.64 0.32L84.64 0.32Q82.16 0.32 80.34-0.52Q78.52-1.36 77.56-2.84Q76.60-4.32 76.60-6.20L76.60-6.20Q76.60-9.20 78.86-10.92Q81.12-12.64 85.84-12.64L85.84-12.64L90.80-12.64Q90.80-14.68 89.56-15.78Q88.32-16.88 85.84-16.88L85.84-16.88Q84.12-16.88 82.46-16.34Q80.80-15.80 79.64-14.88L79.64-14.88L77.40-19.24Q79.16-20.48 81.62-21.16Q84.08-21.84 86.68-21.84L86.68-21.84ZM86.20-3.88Q87.80-3.88 89.04-4.62Q90.28-5.36 90.80-6.80L90.80-6.80L90.80-9L86.52-9Q82.68-9 82.68-6.48L82.68-6.48Q82.68-5.28 83.62-4.58Q84.56-3.88 86.20-3.88L86.20-3.88Z M133.36-6.24L133.36-14.44L139.28-14.44L139.28-3.08Q137-1.36 134-0.44Q131 0.48 127.96 0.48L127.96 0.48Q123.60 0.48 120.12-1.38Q116.64-3.24 114.66-6.54Q112.68-9.84 112.68-14L112.68-14Q112.68-18.16 114.66-21.46Q116.64-24.76 120.16-26.62Q123.68-28.48 128.08-28.48L128.08-28.48Q131.76-28.48 134.76-27.24Q137.76-26 139.80-23.64L139.80-23.64L135.64-19.80Q132.64-22.96 128.40-22.96L128.40-22.96Q125.72-22.96 123.64-21.84Q121.56-20.72 120.40-18.68Q119.24-16.64 119.24-14L119.24-14Q119.24-11.40 120.40-9.36Q121.56-7.32 123.62-6.18Q125.68-5.04 128.32-5.04L128.32-5.04Q131.12-5.04 133.36-6.24L133.36-6.24Z M144.84 0L144.84-29.68L151.08-29.68L151.08 0L144.84 0Z M165.56-21.84Q170.56-21.84 173.24-19.46Q175.92-17.08 175.92-12.28L175.92-12.28L175.92 0L170.08 0L170.08-2.68Q168.32 0.32 163.52 0.32L163.52 0.32Q161.04 0.32 159.22-0.52Q157.40-1.36 156.44-2.84Q155.48-4.32 155.48-6.20L155.48-6.20Q155.48-9.20 157.74-10.92Q160-12.64 164.72-12.64L164.72-12.64L169.68-12.64Q169.68-14.68 168.44-15.78Q167.20-16.88 164.72-16.88L164.72-16.88Q163-16.88 161.34-16.34Q159.68-15.80 158.52-14.88L158.52-14.88L156.28-19.24Q158.04-20.48 160.50-21.16Q162.96-21.84 165.56-21.84L165.56-21.84ZM165.08-3.88Q166.68-3.88 167.92-4.62Q169.16-5.36 169.68-6.80L169.68-6.80L169.68-9L165.40-9Q161.56-9 161.56-6.48L161.56-6.48Q161.56-5.28 162.50-4.58Q163.44-3.88 165.08-3.88L165.08-3.88Z M192.20 0.32Q188.76 0.32 186.02-1.10Q183.28-2.52 181.74-5.04Q180.20-7.56 180.20-10.76L180.20-10.76Q180.20-13.96 181.74-16.48Q183.28-19 186.02-20.42Q188.76-21.84 192.20-21.84L192.20-21.84Q195.60-21.84 198.14-20.42Q200.68-19 201.84-16.36L201.84-16.36L197.00-13.76Q195.32-16.72 192.16-16.72L192.16-16.72Q189.72-16.72 188.12-15.12Q186.52-13.52 186.52-10.76L186.52-10.76Q186.52-8 188.12-6.40Q189.72-4.80 192.16-4.80L192.16-4.80Q195.36-4.80 197.00-7.76L197.00-7.76L201.84-5.12Q200.68-2.56 198.14-1.12Q195.60 0.32 192.20 0.32L192.20 0.32Z M205.44 0L205.44-21.52L211.68-21.52L211.68 0L205.44 0ZM208.56-24.52Q206.84-24.52 205.76-25.52Q204.68-26.52 204.68-28L204.68-28Q204.68-29.48 205.76-30.48Q206.84-31.48 208.56-31.48L208.56-31.48Q210.28-31.48 211.36-30.52Q212.44-29.56 212.44-28.12L212.44-28.12Q212.44-26.56 211.36-25.54Q210.28-24.52 208.56-24.52L208.56-24.52Z M238.56-10.68Q238.56-10.56 238.44-9L238.44-9L222.16-9Q222.60-7 224.24-5.84Q225.88-4.68 228.32-4.68L228.32-4.68Q230-4.68 231.30-5.18Q232.60-5.68 233.72-6.76L233.72-6.76L237.04-3.16Q234 0.32 228.16 0.32L228.16 0.32Q224.52 0.32 221.72-1.10Q218.92-2.52 217.40-5.04Q215.88-7.56 215.88-10.76L215.88-10.76Q215.88-13.92 217.38-16.46Q218.88-19 221.50-20.42Q224.12-21.84 227.36-21.84L227.36-21.84Q230.52-21.84 233.08-20.48Q235.64-19.12 237.10-16.58Q238.56-14.04 238.56-10.68L238.56-10.68ZM227.40-17.12Q225.28-17.12 223.84-15.92Q222.40-14.72 222.08-12.64L222.08-12.64L232.68-12.64Q232.36-14.68 230.92-15.90Q229.48-17.12 227.40-17.12L227.40-17.12Z M248.68-18.68Q249.80-20.24 251.70-21.04Q253.60-21.84 256.08-21.84L256.08-21.84L256.08-16.08Q255.04-16.16 254.68-16.16L254.68-16.16Q252-16.16 250.48-14.66Q248.96-13.16 248.96-10.16L248.96-10.16L248.96 0L242.72 0L242.72-21.52L248.68-21.52L248.68-18.68Z"/></g>
</svg>
</g><g opacity="1" transform="rotate(0 335 275.3835)">
<svg width="74.4521" height="74.4521" x="335" y="275.3835" version="1.1" preserveAspectRatio="none" viewBox="0 0 74.4521 74.4521">
  <rect x="1.5" y="1.5" width="71.4521" height="71.4521" class="atBXipXk0bfillColor text-str" style="stroke-width:3;" rx="0px" ry="0px" />
</svg>
</g><g opacity="1" transform="rotate(0 344.6606 284.6096)">
<svg width="55.131" height="56" x="344.6606" y="284.6096" version="1.1" preserveAspectRatio="none" viewBox="0 0 55.13100051879883 56">
  <g transform="matrix(1 0 0 1 0 0)" class="awcQ0Ipv4ccolors-0"><title>012 - Machine Learning</title><desc>Created with Sketch.</desc><g stroke-width="1" fill-rule="evenodd"><g fill-rule="nonzero"><path d="M21.53662,8.44043 C21.5131208,8.73335797 21.3618453,9.00108302 21.12305,9.17236 L19.96942,10 L22.2348,10 L24.65527,8.23926 L20.4339,4.01788 C20.0899557,4.60149565 19.6035172,5.08827141 19.02014,5.43262 L21.24609,7.65186 C21.45419,7.85919951 21.5604584,8.14763828 21.53662,8.44043 Z"></path><rect x="11" y="16" width="4" height="4" rx="1"></rect><rect x="11" y="30" width="8" height="2"></rect><path d="M7,32 L9,32 L9,27 C9.00180771,25.3438951 10.3438951,24.0018077 12,24 L19,24 L19,17 C19.0000041,16.6630666 19.1696688,16.348784 19.4513574,16.1639173 C19.7330459,15.9790506 20.0888879,15.9484535 20.398,16.08252 L21.34356,16.49261 L24.3999,14.2002 C24.6869449,13.9846524 25.0675153,13.9395382 25.397,14.082 L35.5972,18.49216 C36.1104315,18.717858 36.5840673,19.0245496 37,19.40051 L37,14 C36.9988975,12.8958875 36.1041125,12.0011025 35,12 L7,12 C5.89588748,12.0011025 5.00110246,12.8958875 5,14 L5,30 C5.00110246,31.1041125 5.89588748,31.9988975 7,32 Z M9,17 C9.00180771,15.3438951 10.3438951,14.0018077 12,14 L14,14 C15.6561049,14.0018077 16.9981923,15.3438951 17,17 L17,19 C16.9981923,20.6561049 15.6561049,21.9981923 14,22 L12,22 C10.3438951,21.9981923 9.00180771,20.6561049 9,19 L9,17 Z"></path><path d="M16,38 C15.4477153,38 15,38.4477153 15,39 C15,39.5522847 15.4477153,40 16,40 L19,40 L19,34 L16,34 C15.4477153,34 15,34.4477153 15,35 C15,35.5522847 15.4477153,36 16,36 C16.5522847,36 17,36.4477153 17,37 C17,37.5522847 16.5522847,38 16,38 Z"></path><path d="M42,24.11755 L42,45.55334 L49.62469,42.23993 L46.188,37.08447 C45.3203665,35.7796889 45.6724512,34.0188316 46.9751,33.148 C48.253673,32.3447196 49.9336298,32.6473186 50.85156,33.84624 L55,39.55 L55,18.52344 L42.37793,23.99756 C42.25665,24.05023 42.12518,24.07422 42,24.11755 Z"></path><path d="M55.03589,43 L49.231,35.01807 C48.9626081,34.6631437 48.467569,34.5720027 48.09037,34.80807 C47.7043815,35.0659228 47.5980808,35.5865414 47.85209,35.97507 L52.53516,43 L55.03589,43 Z"></path><polygon points="44.499 48 47.52 48 50.762 43.946 50.752 43.93 43.73 46.98"></polygon><rect x="36" y="24.43018" width="4" height="21.56982"></rect><path d="M41.58154,22.1626 L52.54468,17.40839 L50.86426,16.148 L41.19678,20.32818 C40.3010419,20.7402632 39.6115812,21.4991382 39.28705,22.43018 L40.31005,22.43018 C40.7476798,22.4285068 41.180355,22.337452 41.58154,22.1626 Z"></path><path d="M19,26 L12,26 C11.4480122,26.0007162 11.0007162,26.4480122 11,27 L11,28 L19,28 L19,26 Z"></path><circle cx="17" cy="2" r="2"></circle><path d="M0,50 L0,56 L3,56 L3,46.142 C1.23854886,46.5954269 0.00549565026,48.1811333 8.8817842e-16,50 Z"></path><path d="M41.12323,47.915 C41.082756,47.9260544 41.0415873,47.9343864 41,47.93994 C40.98608,47.93994 40.97461,47.93256 40.96082,47.93201 C40.7455756,47.9685569 40.52821,47.9912701 40.31006,48.00001 L39.86847,48.00001 L41.8761,51.01142 L42.82849,49.1067 L41.80627,47.74928 C41.5825904,47.8198699 41.3543887,47.8752365 41.12323,47.915 Z"></path><path d="M35.03992,47.93188 C35.02592,47.9325 35.01416,47.93994 35,47.93994 L35,56 L37,56 L37,48 L35.68994,48 C35.4720357,47.9911789 35.2549189,47.9684257 35.03992,47.93188 Z"></path><polygon points="52.48 45 49.265 49.02 50.952 51.269 55.131 45"></polygon><path d="M36.713,22.43018 C36.388749,21.4993936 35.6996341,20.740665 34.80425,20.32861 L25.13574,16.148 L23.45532,17.40844 L34.418,22.1626 C34.819378,22.3374091 35.2522106,22.4284605 35.69,22.43018 L36.713,22.43018 Z"></path><polygon points="44.618 50 43.618 52 49 52 47.5 50"></polygon><rect x="44" y="54" width="5" height="2"></rect><path d="M25.39624,44 L20.78479,42 L7,42 C5.89588748,42.0011025 5.00110246,42.8958875 5,44 L5,56 L7,56 L7,47 C7.00180771,45.3438951 8.34389511,44.0018077 10,44 L25.39624,44 Z"></path><path d="M0,23 C0.00549565026,24.8188667 1.23854886,26.4045731 3,26.858 L3,19.142 C1.23854886,19.5954269 0.00549565026,21.1811333 0,23 Z"></path><path d="M10,46 C9.44801218,46.0007162 9.00071619,46.4480122 9,47 L9,56 L33,56 L33,47.29779 L30.00763,46 L10,46 Z"></path><path d="M21,18.52344 L21,39.91406 L21.37872,40.07849 L21.38019,40.0791 L30.57965,44.07257 C30.59998,44.08044 30.61865,44.08887 30.63824,44.09802 L34,45.55737 L34,24.11768 C33.87463,24.07434 33.743,24.05029 33.62158,23.99756 L21,18.52344 Z"></path></g></g></g>
</svg>
</g></svg>